# Blender v2.92.0 OBJ File: ''
# www.blender.org
mtllib cubo.mtl
o Cube
v 1.000000 1.000000 -1.000000
v 1.000000 -1.000000 -1.000000
v 1.000000 1.000000 1.000000
v 1.000000 -1.000000 1.000000
v -1.000000 1.000000 -1.000000
v -1.000000 -1.000000 -1.000000
v -1.000000 1.000000 1.000000
v -1.000000 -1.000000 1.000000
v 1.000000 1.000000 1.000000
v -1.000000 1.000000 1.000000
v 1.000000 1.000000 -1.000000
v -1.000000 1.000000 -1.000000
v 1.000000 25.991299 1.000000
v -1.000000 25.991299 1.000000
v 1.000000 25.991299 -1.000000
v -1.000000 25.991299 -1.000000
v -1.000000 23.953964 -1.000000
v 1.000000 23.953964 -1.000000
v 1.000000 23.953964 1.000000
v -1.000000 23.953964 1.000000
v -1.000000 25.991299 -26.044945
v 1.000000 25.991299 -26.044945
v -1.000000 23.953964 -26.044945
v 1.000000 23.953964 -26.044945
v -1.000000 25.991299 -23.996876
v -1.000000 23.953964 -23.996876
v 1.000000 23.953964 -23.996876
v 1.000000 25.991299 -23.996876
v -1.000000 -0.973948 -26.044945
v 1.000000 -0.973948 -26.044945
v -1.000000 -0.973948 -23.996876
v 1.000000 -0.973948 -23.996876
v 1.000000 0.957088 -23.996876
v 1.000000 0.957088 -26.044945
v -1.000000 0.957088 -26.044945
v -1.000000 0.957088 -23.996876
v -1.000000 -0.973948 -0.997578
v 1.000000 -0.973948 -0.997578
v 1.000000 0.957088 -0.997578
v -1.000000 0.957088 -0.997578
v -25.941933 23.953964 -26.044945
v -25.941933 25.991299 -26.044945
v -25.941933 25.991299 -23.996876
v -25.941933 23.953964 -23.996876
v -23.915058 25.991299 -26.044945
v -23.915058 25.991299 -23.996876
v -23.915058 23.953964 -23.996876
v -23.915058 23.953964 -26.044945
v -25.941933 -1.044161 -26.044945
v -25.941933 -1.044161 -23.996876
v -23.915058 -1.044161 -23.996876
v -23.915058 -1.044161 -26.044945
v -23.915058 1.004049 -23.996876
v -23.915058 1.004049 -26.044945
v -25.941933 1.004049 -23.996876
v -25.941933 1.004049 -26.044945
v -25.928019 -1.000000 -1.000000
v -25.928019 -1.000000 1.000000
v -25.928019 1.000000 1.000000
v -25.928019 1.000000 -1.000000
v -25.928019 25.991299 1.000000
v -25.928019 25.991299 -1.000000
v -25.928019 23.953964 -1.000000
v -25.928019 23.953964 1.000000
v -23.938457 23.953964 -1.000000
v -23.938457 25.991299 -1.000000
v -23.938457 23.953964 1.000000
v -23.938457 25.991299 1.000000
v -23.996975 -1.000000 1.000000
v -23.996975 -1.000000 -1.000000
v -23.996975 1.000000 -1.000000
v -23.996975 1.000000 1.000000
vt 0.625000 0.500000
vt 0.625000 0.250000
vt 0.625000 0.250000
vt 0.625000 0.500000
vt 0.375000 0.750000
vt 0.625000 0.750000
vt 0.625000 1.000000
vt 0.375000 1.000000
vt 0.625000 0.250000
vt 0.625000 0.250000
vt 0.625000 0.250000
vt 0.625000 0.250000
vt 0.125000 0.500000
vt 0.375000 0.500000
vt 0.125000 0.750000
vt 0.875000 0.500000
vt 0.875000 0.500000
vt 0.875000 0.500000
vt 0.875000 0.500000
vt 0.625000 0.750000
vt 0.625000 1.000000
vt 0.625000 0.000000
vt 0.625000 0.000000
vt 0.625000 0.500000
vt 0.875000 0.500000
vt 0.875000 0.750000
vt 0.625000 0.750000
vt 0.625000 0.750000
vt 0.625000 0.500000
vt 0.625000 1.000000
vt 0.625000 0.000000
vt 0.625000 1.000000
vt 0.625000 1.000000
vt 0.625000 0.000000
vt 0.625000 0.250000
vt 0.625000 0.500000
vt 0.625000 0.250000
vt 0.625000 0.250000
vt 0.625000 0.500000
vt 0.625000 0.500000
vt 0.625000 0.500000
vt 0.625000 0.500000
vt 0.625000 0.500000
vt 0.625000 0.500000
vt 0.625000 0.500000
vt 0.875000 0.500000
vt 0.875000 0.500000
vt 0.625000 0.250000
vt 0.625000 0.250000
vt 0.625000 0.250000
vt 0.625000 0.250000
vt 0.625000 0.250000
vt 0.625000 0.250000
vt 0.625000 0.250000
vt 0.625000 0.250000
vt 0.625000 0.250000
vt 0.625000 0.250000
vt 0.625000 0.250000
vt 0.625000 0.250000
vt 0.625000 0.250000
vt 0.625000 0.000000
vt 0.625000 0.250000
vt 0.625000 0.250000
vt 0.625000 0.250000
vt 0.625000 0.250000
vt 0.625000 0.250000
vt 0.625000 0.250000
vt 0.625000 0.250000
vt 0.625000 0.250000
vt 0.625000 0.250000
vt 0.375000 0.000000
vt 0.625000 0.000000
vt 0.375000 0.250000
vt 0.625000 0.250000
vt 0.625000 0.250000
vt 0.375000 0.250000
vt 0.875000 0.750000
vt 0.875000 0.500000
vt 0.875000 0.500000
vt 0.875000 0.750000
vt 0.125000 0.500000
vt 0.125000 0.750000
vt 0.125000 0.750000
vt 0.125000 0.500000
vt 0.625000 0.000000
vt 0.625000 1.000000
vt 0.625000 0.000000
vt 0.625000 1.000000
vt 0.625000 1.000000
vt 0.625000 1.000000
vt 0.375000 1.000000
vt 0.625000 1.000000
vt 0.375000 1.000000
vt 0.625000 0.250000
vt 0.375000 0.250000
vn 0.0000 0.0000 1.0000
vn 0.0000 0.0000 -1.0000
vn 0.0000 -1.0000 0.0000
vn 1.0000 0.0000 0.0000
vn 0.0000 1.0000 0.0000
vn -1.0000 0.0000 0.0000
vn 0.0000 1.0000 -0.0019
vn 0.0020 1.0000 0.0000
vn 0.0031 -1.0000 0.0000
vn 0.0000 -1.0000 -0.0011
vn 1.0000 -0.0025 0.0000
vn 1.0000 0.0000 0.0010
vn -1.0000 0.0000 0.0006
vn 0.0000 -1.0000 0.0019
vn 1.0000 0.0000 0.0036
vn 0.0000 1.0000 0.0002
usemtl Material
s off
f 1/1/1 5/2/1 12/3/1 11/4/1
f 4/5/1 3/6/1 7/7/1 8/8/1
f 65/9/2 71/10/2 60/11/2 63/12/2
f 6/13/3 2/14/3 4/5/3 8/15/3
f 2/14/4 1/1/4 3/6/4 4/5/4
f 46/16/5 45/17/5 42/18/5 43/19/5
f 7/7/1 3/6/1 9/20/1 10/21/1
f 5/2/1 7/22/1 10/23/1 12/3/1
f 3/6/1 1/1/1 11/4/1 9/20/1
f 15/24/5 16/25/5 14/26/5 13/27/5
f 19/28/4 18/29/4 15/24/4 13/27/4
f 60/11/6 59/30/6 64/31/6 63/12/6
f 20/32/1 19/28/1 13/27/1 14/33/1
f 10/21/1 9/20/1 19/28/1 20/32/1
f 12/3/6 10/23/6 20/34/6 17/35/6
f 9/20/4 11/4/4 18/29/4 19/28/4
f 11/4/2 12/3/2 17/35/2 18/29/2
f 24/36/2 23/37/2 21/38/2 22/39/2
f 34/40/4 33/41/4 32/42/4 30/43/4
f 28/44/4 27/45/4 24/36/4 22/39/4
f 25/46/5 28/44/5 22/39/5 21/47/5
f 16/25/5 15/24/5 28/44/5 25/46/5
f 15/24/4 18/29/4 27/45/4 28/44/4
f 18/29/3 17/35/3 26/48/3 27/45/3
f 17/35/6 16/49/6 25/50/6 26/48/6
f 32/42/3 31/51/3 29/52/3 30/43/3
f 35/53/2 29/52/2 52/54/2 54/55/2
f 35/53/2 34/40/2 30/43/2 29/52/2
f 27/45/1 26/48/1 36/56/1 33/41/1
f 23/37/2 24/36/2 34/40/2 35/53/2
f 26/48/6 23/37/6 35/53/6 36/56/6
f 24/36/4 27/45/4 33/41/4 34/40/4
f 12/3/7 11/4/7 33/41/7 36/56/7
f 44/57/6 43/58/6 42/59/6 41/60/6
f 63/12/6 64/31/6 61/61/6 62/62/6
f 45/63/2 48/64/2 41/60/2 42/59/2
f 21/38/2 23/37/2 48/64/2 45/63/2
f 23/37/3 26/48/3 47/65/3 48/64/3
f 26/48/1 25/50/1 46/66/1 47/65/1
f 25/46/5 21/47/5 45/17/5 46/16/5
f 52/54/3 51/67/3 50/68/3 49/69/3
f 35/53/8 54/55/8 53/70/8 36/56/8
f 58/71/6 59/72/6 60/11/6 57/73/6
f 56/74/2 54/55/2 52/54/2 49/69/2
f 55/75/6 56/74/6 49/69/6 50/68/6
f 29/52/9 31/51/9 51/67/9 52/54/9
f 31/51/1 36/56/1 53/70/1 51/67/1
f 5/2/6 36/56/6 31/51/6 6/76/6
f 2/14/10 6/76/10 31/51/10 32/42/10
f 2/14/4 32/42/4 33/41/4 1/1/4
f 48/64/4 47/65/4 53/70/4 54/55/4
f 47/65/1 44/57/1 55/75/1 53/70/1
f 44/57/6 41/60/6 56/74/6 55/75/6
f 41/60/2 48/64/2 54/55/2 56/74/2
f 68/77/5 66/78/5 62/79/5 61/80/5
f 70/81/3 69/82/3 58/83/3 57/84/3
f 67/85/1 64/86/1 59/30/1 72/87/1
f 67/88/1 68/89/1 61/90/1 64/86/1
f 71/10/11 65/9/11 67/85/11 72/87/11
f 69/91/1 72/92/1 59/30/1 58/93/1
f 20/32/1 14/33/1 68/89/1 67/88/1
f 14/26/5 16/25/5 66/78/5 68/77/5
f 16/49/2 17/35/2 65/9/2 66/94/2
f 17/35/3 20/34/3 67/85/3 65/9/3
f 8/8/1 7/7/1 72/92/1 69/91/1
f 5/2/2 6/76/2 70/95/2 71/10/2
f 7/22/5 5/2/5 71/10/5 72/87/5
f 6/13/3 8/15/3 69/82/3 70/81/3
f 46/16/5 43/19/5 62/79/5 66/78/5
f 46/16/12 66/78/12 65/9/12 47/65/12
f 47/65/3 65/9/3 63/12/3 44/57/3
f 43/19/13 44/57/13 63/12/13 62/79/13
f 51/67/14 70/81/14 57/84/14 50/68/14
f 50/68/13 57/84/13 60/11/13 55/75/13
f 53/70/15 71/10/15 70/95/15 51/67/15
f 53/70/16 55/75/16 60/11/16 71/10/16
l 12 40
l 11 39
l 2 38
l 6 37
