# Blender v2.92.0 OBJ File: ''
# www.blender.org
mtllib tunel_q_diminuiobj.mtl
o Cube
v 0.869713 0.869713 -4.981463
v 0.869713 -0.869713 -4.981463
v 0.511184 0.005341 4.981143
v 0.511184 -1.017027 4.981143
v -0.869713 0.869713 -4.981463
v -0.869713 -0.869713 -4.981463
v -0.511184 0.005341 4.981143
v -0.511184 -1.017027 4.981143
v 1.000000 -1.000000 -4.981463
v -1.000000 -1.000000 -4.981463
v 1.000000 1.000000 -4.981463
v -1.000000 1.000000 -4.981463
v 0.444583 -0.955257 4.980475
v -0.444583 -0.955257 4.980475
v 0.444583 -0.066091 4.980475
v -0.444583 -0.066091 4.980475
vt 0.625000 0.500000
vt 0.875000 0.500000
vt 0.875000 0.750000
vt 0.625000 0.750000
vt 0.375000 0.000000
vt 0.391286 0.266286
vt 0.608714 0.266286
vt 0.625000 0.000000
vt 0.625000 0.250000
vt 0.375000 0.250000
vt 0.125000 0.500000
vt 0.375000 0.500000
vt 0.375000 0.750000
vt 0.125000 0.750000
vt 0.391286 0.266286
vt 0.608714 0.266286
vt 0.391286 0.483714
vt 0.608714 0.483714
vt 0.608714 0.483714
vt 0.391286 0.483714
vn 0.0000 0.9951 0.0993
vn 0.0100 0.0000 0.9999
vn -0.9988 0.0000 0.0490
vn 0.0000 -1.0000 -0.0017
vn 0.9988 0.0000 0.0490
vn 0.9991 0.0000 -0.0426
vn 0.0000 0.0000 -1.0000
vn 0.0000 -0.0094 1.0000
vn 0.0000 1.0000 0.0086
vn 0.0000 -0.9956 -0.0935
vn -0.9991 0.0000 -0.0426
vn 0.0000 0.0108 0.9999
vn -0.0100 0.0000 0.9999
usemtl Material
s off
f 11/1/1 12/2/1 7/3/1 3/4/1
f 8/5/2 14/6/2 16/7/2 7/3/2
f 8/5/3 7/8/3 12/9/3 10/10/3
f 10/11/4 9/12/4 4/13/4 8/14/4
f 9/12/5 11/1/5 3/4/5 4/13/5
f 6/15/6 5/16/6 16/7/6 14/6/6
f 6/15/7 2/17/7 9/12/7 10/10/7
f 2/17/7 1/18/7 11/1/7 9/12/7
f 5/16/7 6/15/7 10/10/7 12/9/7
f 1/18/7 5/16/7 12/9/7 11/1/7
f 3/4/8 7/3/8 16/7/8 15/19/8
f 2/17/9 6/15/9 14/6/9 13/20/9
f 5/16/10 1/18/10 15/19/10 16/7/10
f 1/18/11 2/17/11 13/20/11 15/19/11
f 8/5/12 4/13/12 13/20/12 14/6/12
f 4/13/13 3/4/13 15/19/13 13/20/13
