# Blender v2.92.0 OBJ File: ''
# www.blender.org
mtllib tunel_reto.mtl
o Cube.001
v 1.000000 1.000001 -4.981463
v -1.000000 1.000001 -4.981463
v -1.001695 0.997166 4.980761
v 1.001695 0.997166 4.980761
v -1.001695 -1.006224 4.980761
v -0.871186 -0.885182 4.979452
v -0.871186 0.857190 4.979452
v -1.000000 -0.999999 -4.981463
v 1.000000 -0.999999 -4.981463
v 1.001695 -1.006224 4.980761
v -0.869713 -0.869712 -4.981463
v -0.869713 0.869714 -4.981463
v 0.869713 -0.869712 -4.981463
v 0.869713 0.869714 -4.981463
v 0.871186 0.857190 4.979452
v 0.871186 -0.885182 4.979452
vt 0.625000 0.500000
vt 0.875000 0.500000
vt 0.875000 0.750000
vt 0.625000 0.750000
vt 0.375000 0.000000
vt 0.391286 0.266286
vt 0.608714 0.266286
vt 0.625000 0.000000
vt 0.625000 0.250000
vt 0.375000 0.250000
vt 0.125000 0.500000
vt 0.375000 0.500000
vt 0.375000 0.750000
vt 0.125000 0.750000
vt 0.391286 0.266286
vt 0.608714 0.266286
vt 0.391286 0.483714
vt 0.608714 0.483714
vt 0.608714 0.483714
vt 0.391286 0.483714
vn 0.0000 1.0000 0.0003
vn 0.0100 0.0000 0.9999
vn 0.0051 -0.0046 1.0000
vn 0.0100 -0.0003 1.0000
vn -1.0000 0.0000 -0.0002
vn 0.0000 -1.0000 -0.0006
vn 1.0000 0.0000 -0.0002
vn 1.0000 0.0000 0.0001
vn -0.0000 0.0000 -1.0000
vn -0.0100 -0.0003 1.0000
vn -0.0051 -0.0046 1.0000
vn 0.0000 1.0000 0.0016
vn 0.0000 -1.0000 -0.0013
vn -1.0000 0.0000 0.0001
vn 0.0000 0.0108 0.9999
vn -0.0100 0.0000 0.9999
usemtl Material.001
s 1
f 1/1/1 2/2/1 3/3/1 4/4/1
f 5/5/2 6/6/2 7/7/3 3/3/4
f 5/5/5 3/8/5 2/9/5 8/10/5
f 8/11/6 9/12/6 10/13/6 5/14/6
f 9/12/7 1/1/7 4/4/7 10/13/7
f 11/15/8 12/16/8 7/7/8 6/6/8
f 11/15/9 13/17/9 9/12/9 8/10/9
f 13/17/9 14/18/9 1/1/9 9/12/9
f 12/16/9 11/15/9 8/10/9 2/9/9
f 14/18/9 12/16/9 2/9/9 1/1/9
f 4/4/10 3/3/4 7/7/3 15/19/11
f 13/17/12 11/15/12 6/6/12 16/20/12
f 12/16/13 14/18/13 15/19/13 7/7/13
f 14/18/14 13/17/14 16/20/14 15/19/14
f 5/5/15 10/13/15 16/20/15 6/6/15
f 10/13/16 4/4/10 15/19/11 16/20/16
