# Blender v2.92.0 OBJ File: ''
# www.blender.org
mtllib agrSim.mtl
o Cube
v 0.900000 0.900000 -3.077409
v 0.900000 -0.900000 -3.077409
v 0.821556 0.821556 3.077398
v 0.821556 -0.821556 3.077398
v -0.900000 0.900000 -3.077409
v -0.900000 -0.900000 -3.077409
v -0.821556 0.821556 3.077398
v -0.821556 -0.821556 3.077398
v -1.000000 -1.000000 3.077398
v -1.000000 1.000000 3.077398
v 1.000000 1.000000 3.077398
v 1.000000 -1.000000 3.077398
v -0.739401 -0.739401 -3.077614
v -0.739401 0.739401 -3.077614
v 0.739401 0.739401 -3.077614
v 0.739401 -0.739401 -3.077614
vt 0.625000 0.500000
vt 0.875000 0.500000
vt 0.875000 0.750000
vt 0.625000 0.750000
vt 0.602694 0.977695
vt 0.397306 0.977695
vt 0.397306 0.977695
vt 0.602694 0.977695
vt 0.375000 0.000000
vt 0.625000 0.000000
vt 0.625000 0.250000
vt 0.375000 0.250000
vt 0.125000 0.500000
vt 0.375000 0.500000
vt 0.375000 0.750000
vt 0.125000 0.750000
vt 0.397306 0.772306
vt 0.602695 0.772305
vt 0.625000 1.000000
vt 0.375000 1.000000
vt 0.602695 0.772305
vt 0.397306 0.772306
vn 0.0000 0.9999 -0.0162
vn 0.9999 0.0000 0.0133
vn -0.9999 0.0000 -0.0162
vn 0.0000 -0.9999 -0.0162
vn 0.9999 0.0000 -0.0162
vn 0.0013 0.0000 -1.0000
vn 0.0000 0.0000 1.0000
vn 0.0000 0.0013 -1.0000
vn 0.0000 0.9999 0.0133
vn -0.9999 0.0000 0.0133
vn 0.0000 -0.9999 0.0133
vn 0.0000 -0.0013 -1.0000
vn -0.0013 0.0000 -1.0000
usemtl Material
s off
f 1/1/1 5/2/1 10/3/1 11/4/1
f 7/5/2 8/6/2 13/7/2 14/8/2
f 9/9/3 10/10/3 5/11/3 6/12/3
f 6/13/4 2/14/4 12/15/4 9/16/4
f 2/14/5 1/1/5 11/4/5 12/15/5
f 2/14/6 16/17/6 15/18/6 1/1/6
f 8/6/7 7/5/7 10/19/7 9/20/7
f 3/21/7 4/22/7 12/15/7 11/4/7
f 7/5/7 3/21/7 11/4/7 10/19/7
f 4/22/7 8/6/7 9/20/7 12/15/7
f 5/2/8 1/1/8 15/18/8 14/8/8
f 8/6/9 4/22/9 16/17/9 13/7/9
f 4/22/10 3/21/10 15/18/10 16/17/10
f 3/21/11 7/5/11 14/8/11 15/18/11
f 2/14/12 6/13/12 13/7/12 16/17/12
f 5/2/13 14/8/13 13/7/13 6/13/13
