# Blender v2.92.0 OBJ File: ''
# www.blender.org
mtllib cotov.mtl
o Cube.001
v 1.000000 1.000002 -4.981463
v -1.000000 1.000002 -4.981463
v -1.001695 0.997165 4.980761
v 1.001695 0.997165 4.980761
v -1.001695 -1.006225 4.980761
v -0.871186 -0.885183 4.856396
v -0.871186 0.857189 4.856396
v -1.000000 -0.999998 -4.981463
v 1.000000 -0.999998 -4.981463
v 1.001695 -1.006225 4.980761
v -0.869713 -0.869711 -4.981463
v -0.869713 0.869715 -4.981463
v 0.869713 -0.869711 -4.981463
v 0.869713 0.869715 -4.981463
v 0.871186 0.857189 4.856396
v 0.871186 -0.885183 4.856396
v -1.001359 -1.004989 2.900614
v -0.870894 -0.882114 3.003524
v 1.001359 0.997728 3.003524
v -0.870894 0.859674 3.003524
v 1.001359 -1.004989 3.003524
v -1.001359 0.997728 2.900613
v 0.870894 0.859674 3.003525
v 0.870894 -0.882114 3.003524
v -6.211220 -0.885183 4.855554
v -6.211220 0.857189 4.855554
v -6.210928 -0.882114 3.002682
v -6.210928 0.859674 3.002682
v -6.214774 0.997165 4.980761
v -6.214774 -1.006225 4.980761
v -6.214437 -1.004989 2.900614
v -6.214437 0.997728 2.900613
vt 0.625000 0.500000
vt 0.875000 0.500000
vt 0.875000 0.700382
vt 0.625000 0.700382
vt 0.375000 0.000000
vt 0.391286 0.266286
vt 0.608714 0.266286
vt 0.875000 0.750000
vt 0.608714 0.266286
vt 0.875000 0.750000
vt 0.875000 0.700382
vt 0.608714 0.266286
vt 0.125000 0.500000
vt 0.375000 0.500000
vt 0.375000 0.700382
vt 0.125000 0.700382
vt 0.391286 0.266286
vt 0.608714 0.266286
vt 0.608714 0.266286
vt 0.391286 0.266286
vt 0.391286 0.483714
vt 0.375000 0.250000
vt 0.608714 0.483714
vt 0.625000 0.250000
vt 0.625000 0.750000
vt 0.608714 0.483714
vt 0.391286 0.483714
vt 0.608714 0.483714
vt 0.375000 0.750000
vt 0.391286 0.483714
vt 0.391286 0.266286
vt 0.391286 0.266286
vt 0.375000 0.049618
vt 0.625000 0.049618
vt 0.125000 0.750000
vt 0.375000 0.000000
vt 0.125000 0.750000
vt 0.125000 0.700382
vt 0.375000 0.049618
vt 0.625000 0.049618
vn -0.0000 1.0000 0.0003
vn 0.6899 0.0000 0.7239
vn 0.6948 0.0011 0.7192
vn -0.9998 -0.0124 -0.0146
vn -0.9999 -0.0105 -0.0119
vn -0.5829 0.5743 -0.5748
vn -0.7883 0.1466 -0.5976
vn 0.0000 -1.0000 -0.0006
vn 1.0000 -0.0000 -0.0002
vn 1.0000 0.0000 0.0001
vn 0.3327 0.2436 0.9110
vn 0.3338 -0.2445 0.9104
vn 0.0000 0.0000 -1.0000
vn -0.3862 -0.3846 0.8384
vn 0.0048 -0.6604 0.7509
vn 0.0000 -0.6642 0.7476
vn -0.3975 -0.3739 0.8380
vn 0.0000 1.0000 0.0016
vn 0.0000 -1.0000 -0.0013
vn -1.0000 -0.0000 0.0001
vn -1.0000 -0.0000 0.0002
vn 0.0000 0.7166 0.6975
vn -0.6899 0.0000 0.7239
vn 0.0708 0.0000 0.9975
vn 0.0789 0.0004 0.9969
vn -0.0254 0.0071 0.9997
vn 0.0000 1.0000 0.0017
vn 0.0001 -0.7066 -0.7076
vn 0.0001 0.7077 -0.7065
vn -0.5771 -0.5772 -0.5777
vn -0.5775 0.5773 -0.5773
vn -1.0000 0.0000 -0.0002
vn 0.0000 -0.7074 0.7069
vn 0.0045 0.7078 0.7064
vn -0.0045 0.7062 0.7080
vn 0.0000 -0.7073 0.7069
vn -0.5834 -0.5739 -0.5748
vn -0.9998 0.0142 -0.0146
vn -0.9998 0.0146 -0.0141
vn -0.0052 0.0046 1.0000
vn 0.0052 0.0046 1.0000
vn 0.0000 0.0000 1.0000
usemtl Material.001
s 1
f 1/1/1 2/2/1 22/3/1 19/4/1
f 5/5/2 6/6/2 7/7/2 3/8/3
f 26/9/4 29/10/5 32/11/6 28/12/7
f 8/13/8 9/14/8 21/15/8 17/16/8
f 9/14/9 1/1/9 19/4/9 21/15/9
f 11/17/10 12/18/10 20/19/11 18/20/12
f 11/17/13 13/21/13 9/14/13 8/22/13
f 13/21/13 14/23/13 1/1/13 9/14/13
f 12/18/13 11/17/13 8/22/13 2/24/13
f 14/23/13 12/18/13 2/24/13 1/1/13
f 4/25/14 3/8/15 7/7/16 15/26/17
f 13/21/18 11/17/18 18/20/18 24/27/18
f 12/18/19 14/23/19 23/28/19 20/19/19
f 14/23/20 13/21/20 24/27/21 23/28/21
f 5/5/22 10/29/22 16/30/22 6/6/22
f 10/29/23 4/25/14 15/26/17 16/30/23
f 16/30/24 15/26/24 7/7/24 3/8/25 5/5/24 6/6/24
f 18/20/12 20/19/11 28/12/7 27/31/26
f 24/27/18 18/20/18 6/6/27 16/30/27
f 7/7/28 6/6/29 25/32/29 26/9/28
f 20/19/19 23/28/19 15/26/19 7/7/19
f 17/33/30 22/34/31 2/24/32 8/22/32
f 23/28/21 24/27/21 16/30/21 15/26/21
f 17/16/8 21/15/8 10/29/8 5/35/8
f 19/4/1 22/3/1 3/8/1 4/25/1
f 21/15/9 19/4/9 4/25/9 10/29/9
f 20/19/11 7/7/28 26/9/28 28/12/7
f 6/6/29 18/20/12 27/31/26 25/32/29
f 5/5/33 3/8/34 29/10/35 30/36/36
f 3/8/34 22/3/31 32/11/6 29/10/35
f 17/16/30 5/35/33 30/37/36 31/38/37
f 22/34/31 17/33/30 31/39/37 32/40/6
f 27/31/26 28/12/7 32/40/6 31/39/37
f 27/31/26 31/39/37 30/37/38 25/32/39
f 25/32/39 30/37/38 29/10/5 26/9/4
f 4/25/40 3/8/41 5/5/42 10/29/42
