# Blender v2.92.0 OBJ File: ''
# www.blender.org
mtllib parede.mtl
o Cube.001
v -4.113900 -2.883742 0.124635
v -4.113900 2.883742 0.124635
v -4.113900 -2.883742 -0.124635
v -4.113900 2.883742 -0.124635
v 4.113900 -2.883742 0.124635
v 4.113900 2.883742 0.124635
v 4.113900 -2.883742 -0.124635
v 4.113900 2.883742 -0.124635
v 1.015536 -1.008720 0.124635
v 1.015536 -1.008720 -0.124635
v -0.984464 -1.008720 0.124635
v -0.984464 -1.008720 -0.124635
v -0.984464 -2.883742 0.124635
v -0.984464 -2.883742 -0.124635
v 1.015536 -2.883742 0.124635
v 1.015536 -2.883742 -0.124635
vt 0.375000 0.000000
vt 0.625000 0.000000
vt 0.625000 0.250000
vt 0.375000 0.250000
vt 0.375000 0.500000
vt 0.625000 0.500000
vt 0.625000 0.750000
vt 0.375000 0.750000
vt 0.875000 0.500000
vt 0.875000 0.750000
vt 0.625000 0.573759
vt 0.875000 0.573759
vt 0.875000 0.567504
vt 0.625000 0.567504
vt 0.625000 0.182496
vt 0.625000 0.176241
vt 0.390622 0.176241
vt 0.390622 0.182496
vt 0.390622 0.567504
vt 0.390622 0.573759
vt 0.375000 0.345087
vt 0.375000 0.405857
vt 0.456276 0.405857
vt 0.456276 0.345087
vt 0.375000 0.844143
vt 0.625000 1.000000
vt 0.375000 1.000000
vt 0.375000 0.904913
vt 0.456276 0.904913
vt 0.456276 0.844143
vt 0.280857 0.750000
vt 0.280857 0.500000
vt 0.125000 0.750000
vt 0.125000 0.500000
vt 0.220087 0.500000
vt 0.220087 0.750000
vn -1.0000 0.0000 0.0000
vn 1.0000 0.0000 0.0000
vn 0.0000 1.0000 0.0000
vn 0.0000 -1.0000 0.0000
vn 0.0000 0.0000 -1.0000
vn 0.0000 0.0000 1.0000
usemtl None
s off
f 1/1/1 2/2/1 4/3/1 3/4/1
f 7/5/2 8/6/2 6/7/2 5/8/2
f 8/6/3 4/9/3 2/10/3 6/7/3
f 9/11/4 11/12/4 12/13/4 10/14/4
f 12/15/2 11/16/2 13/17/2 14/18/2
f 16/19/1 15/20/1 9/11/1 10/14/1
f 14/21/5 3/4/5 4/3/5 8/6/5 7/5/5 16/22/5 10/23/5 12/24/5
f 15/25/6 5/8/6 6/7/6 2/26/6 1/27/6 13/28/6 11/29/6 9/30/6
f 7/5/4 5/8/4 15/31/4 16/32/4
f 1/33/4 3/34/4 14/35/4 13/36/4
