# Blender v2.92.0 OBJ File: ''
# www.blender.org
mtllib tunel_q_desce.mtl
o Cube
v 0.869713 0.869713 -7.566484
v 0.869713 -0.869713 -7.566484
v 1.000000 5.261364 7.566484
v 1.000000 3.261364 7.566484
v -0.869713 0.869713 -7.566484
v -0.869713 -0.869713 -7.566484
v -1.000000 5.261364 7.566484
v -1.000000 3.261364 7.566484
v 1.000000 -1.000000 -7.566484
v -1.000000 -1.000000 -7.566484
v 1.000000 1.000000 -7.566484
v -1.000000 1.000000 -7.566484
v 0.869713 3.382200 7.564497
v -0.869713 3.382200 7.564497
v 0.869713 5.121626 7.564497
v -0.869713 5.121626 7.564497
v -1.000000 5.261364 4.980895
v 0.869713 3.383814 4.980895
v -0.869713 3.383814 4.980895
v 1.000000 3.261364 4.980895
v -0.869713 5.123240 4.980895
v -1.000000 3.261364 4.980895
v 0.869713 5.123240 4.980895
v 1.000000 5.261364 4.980895
v -1.000000 1.000000 -5.029888
v -0.869713 0.868129 -5.029888
v 1.000000 1.000000 -5.029888
v -0.869713 -0.871298 -5.029888
v 1.000000 -1.000000 -5.029888
v 0.869713 0.868129 -5.029888
v 0.869713 -0.871298 -5.029888
v -1.000000 -1.000000 -5.029888
vt 0.625000 0.500000
vt 0.875000 0.500000
vt 0.875000 0.541905
vt 0.625000 0.541905
vt 0.375000 0.000000
vt 0.391286 0.266286
vt 0.608714 0.266286
vt 0.875000 0.750000
vt 0.625000 0.000000
vt 0.625000 0.042715
vt 0.375000 0.042715
vt 0.125000 0.500000
vt 0.375000 0.500000
vt 0.375000 0.541905
vt 0.125000 0.541905
vt 0.391286 0.266286
vt 0.608714 0.266286
vt 0.608714 0.266286
vt 0.391286 0.266286
vt 0.391286 0.483714
vt 0.375000 0.250000
vt 0.608714 0.483714
vt 0.625000 0.250000
vt 0.625000 0.750000
vt 0.608714 0.483714
vt 0.391286 0.483714
vt 0.608714 0.483714
vt 0.375000 0.750000
vt 0.391286 0.483714
vt 0.391286 0.266286
vt 0.608714 0.266286
vt 0.608714 0.483714
vt 0.625000 0.208095
vt 0.375000 0.208095
vt 0.391286 0.483714
vt 0.125000 0.707285
vt 0.375000 0.707285
vt 0.125000 0.750000
vt 0.625000 0.707285
vt 0.875000 0.707285
vn 0.0000 1.0000 0.0000
vn 0.0152 0.0000 0.9999
vn -1.0000 0.0000 0.0000
vn 0.0000 -1.0000 0.0000
vn 1.0000 0.0000 0.0000
vn 0.0000 0.0000 -1.0000
vn 0.0000 -0.0142 0.9999
vn 0.0000 1.0000 0.0006
vn 0.0000 -1.0000 -0.0006
vn 0.0000 0.0164 0.9999
vn -0.0152 0.0000 0.9999
vn 0.0000 -0.9203 0.3912
vn 0.0000 -0.9201 0.3917
vn 0.0000 0.9201 -0.3917
vn 0.0000 0.9203 -0.3912
usemtl Material
s off
f 11/1/1 12/2/1 25/3/1 27/4/1
f 8/5/2 14/6/2 16/7/2 7/8/2
f 8/5/3 7/9/3 17/10/3 22/11/3
f 10/12/4 9/13/4 29/14/4 32/15/4
f 9/13/5 11/1/5 27/4/5 29/14/5
f 6/16/5 5/17/5 26/18/5 28/19/5
f 6/16/6 2/20/6 9/13/6 10/21/6
f 2/20/6 1/22/6 11/1/6 9/13/6
f 5/17/6 6/16/6 10/21/6 12/23/6
f 1/22/6 5/17/6 12/23/6 11/1/6
f 3/24/7 7/8/7 16/7/7 15/25/7
f 2/20/8 6/16/8 28/19/8 31/26/8
f 5/17/9 1/22/9 30/27/9 26/18/9
f 1/22/3 2/20/3 31/26/3 30/27/3
f 8/5/10 4/28/10 13/29/10 14/6/10
f 4/28/11 3/24/11 15/25/11 13/29/11
f 19/30/5 21/31/5 16/7/5 14/6/5
f 21/31/9 23/32/9 15/25/9 16/7/9
f 22/11/3 17/10/3 25/33/3 32/34/3
f 23/32/3 18/35/3 13/29/3 15/25/3
f 22/36/4 20/37/4 4/28/4 8/38/4
f 24/39/1 17/40/1 7/8/1 3/24/1
f 20/37/5 24/39/5 3/24/5 4/28/5
f 18/35/8 19/30/8 14/6/8 13/29/8
f 28/19/5 26/18/5 21/31/5 19/30/5
f 26/18/12 30/27/12 23/32/12 21/31/12
f 32/34/3 25/33/3 12/23/3 10/21/3
f 30/27/3 31/26/3 18/35/3 23/32/3
f 32/15/13 29/14/13 20/37/13 22/36/13
f 27/4/14 25/3/14 17/40/14 24/39/14
f 29/14/5 27/4/5 24/39/5 20/37/5
f 31/26/15 28/19/15 19/30/15 18/35/15
