# Blender v2.92.0 OBJ File: ''
# www.blender.org
mtllib tunelobj.mtl
o Cube
v 0.787824 0.793638 -7.566484
v 0.787824 -0.794460 -7.566484
v 1.000000 1.000000 7.566484
v 1.000000 -1.000000 7.566484
v -0.787824 0.793638 -7.566484
v -0.787824 -0.794460 -7.566484
v -1.000000 1.000000 7.566484
v -1.000000 -1.000000 7.566484
v 1.000000 -1.000000 -7.566484
v -1.000000 -1.000000 -7.566484
v 1.000000 1.000000 -7.566484
v -1.000000 1.000000 -7.566484
v 0.787824 -0.803088 7.564497
v -0.787824 -0.803088 7.564497
v 0.787824 0.785009 7.564497
v -0.787824 0.785009 7.564497
vt 0.625000 0.500000
vt 0.875000 0.500000
vt 0.875000 0.750000
vt 0.625000 0.750000
vt 0.375000 0.000000
vt 0.391286 0.266286
vt 0.608714 0.266286
vt 0.625000 0.000000
vt 0.625000 0.250000
vt 0.375000 0.250000
vt 0.125000 0.500000
vt 0.375000 0.500000
vt 0.375000 0.750000
vt 0.125000 0.750000
vt 0.391286 0.266286
vt 0.608714 0.266286
vt 0.391286 0.483714
vt 0.608714 0.483714
vt 0.608714 0.483714
vt 0.391286 0.483714
vn 0.0000 1.0000 0.0000
vn 0.0094 0.0000 1.0000
vn -1.0000 0.0000 0.0000
vn 0.0000 -1.0000 0.0000
vn 1.0000 0.0000 0.0000
vn 0.0000 0.0000 -1.0000
vn 0.0000 -0.0092 1.0000
vn 0.0000 1.0000 0.0006
vn 0.0000 -1.0000 -0.0006
vn 0.0000 0.0101 0.9999
vn -0.0094 0.0000 1.0000
usemtl Material
s off
f 11/1/1 12/2/1 7/3/1 3/4/1
f 8/5/2 14/6/2 16/7/2 7/3/2
f 8/5/3 7/8/3 12/9/3 10/10/3
f 10/11/4 9/12/4 4/13/4 8/14/4
f 9/12/5 11/1/5 3/4/5 4/13/5
f 6/15/5 5/16/5 16/7/5 14/6/5
f 6/15/6 2/17/6 9/12/6 10/10/6
f 2/17/6 1/18/6 11/1/6 9/12/6
f 5/16/6 6/15/6 10/10/6 12/9/6
f 1/18/6 5/16/6 12/9/6 11/1/6
f 3/4/7 7/3/7 16/7/7 15/19/7
f 2/17/8 6/15/8 14/6/8 13/20/8
f 5/16/9 1/18/9 15/19/9 16/7/9
f 1/18/3 2/17/3 13/20/3 15/19/3
f 8/5/10 4/13/10 13/20/10 14/6/10
f 4/13/11 3/4/11 15/19/11 13/20/11
