# Blender v2.92.0 OBJ File: ''
# www.blender.org
mtllib vaiagr.mtl
o Cube.001
v 0.810000 0.810000 -3.077419
v -0.810000 0.810000 -3.077419
v -1.000000 1.000000 3.077398
v 1.000000 1.000000 3.077398
v -0.821556 0.821555 3.077398
v -0.821556 -0.821556 3.077398
v -0.665461 -0.665460 -3.077604
v -0.665461 0.665461 -3.077604
v -1.000000 -1.000000 3.077398
v -0.810000 -0.810000 -3.077420
v 0.810000 -0.810000 -3.077420
v 1.000000 -1.000000 3.077398
v 0.665461 -0.665460 -3.077604
v 0.665461 0.665461 -3.077604
v 0.821556 0.821555 3.077398
v 0.821556 -0.821556 3.077398
vt 0.625000 0.500000
vt 0.875000 0.500000
vt 0.875000 0.750000
vt 0.625000 0.750000
vt 0.602694 0.977695
vt 0.397306 0.977695
vt 0.397306 0.977695
vt 0.602694 0.977695
vt 0.375000 0.000000
vt 0.625000 0.000000
vt 0.625000 0.250000
vt 0.375000 0.250000
vt 0.125000 0.500000
vt 0.375000 0.500000
vt 0.375000 0.750000
vt 0.125000 0.750000
vt 0.397306 0.772306
vt 0.602695 0.772305
vt 0.625000 1.000000
vt 0.375000 1.000000
vt 0.602695 0.772305
vt 0.397306 0.772306
vn 0.0000 0.9995 -0.0309
vn 0.9997 0.0000 0.0254
vn -0.9995 0.0000 -0.0309
vn 0.0000 -0.9995 -0.0309
vn 0.9995 0.0000 -0.0309
vn 0.0006 -0.0006 -1.0000
vn 0.0006 0.0006 -1.0000
vn 0.0000 -0.0000 1.0000
vn -0.0006 0.0006 -1.0000
vn 0.0000 0.9997 0.0254
vn -0.9997 0.0000 0.0254
vn 0.0000 -0.9997 0.0254
vn -0.0006 -0.0006 -1.0000
usemtl Material.001
s 1
f 1/1/1 2/2/1 3/3/1 4/4/1
f 5/5/2 6/6/2 7/7/2 8/8/2
f 9/9/3 3/10/3 2/11/3 10/12/3
f 10/13/4 11/14/4 12/15/4 9/16/4
f 11/14/5 1/1/5 4/4/5 12/15/5
f 11/14/6 13/17/6 14/18/7 1/1/7
f 6/6/8 5/5/8 3/19/8 9/20/8
f 15/21/8 16/22/8 12/15/8 4/4/8
f 5/5/8 15/21/8 4/4/8 3/19/8
f 16/22/8 6/6/8 9/20/8 12/15/8
f 2/2/9 1/1/7 14/18/7 8/8/9
f 6/6/10 16/22/10 13/17/10 7/7/10
f 16/22/11 15/21/11 14/18/11 13/17/11
f 15/21/12 5/5/12 8/8/12 14/18/12
f 11/14/6 10/13/13 7/7/13 13/17/6
f 2/2/9 8/8/9 7/7/13 10/13/13
